# xmcd
#
# Track frame offsets:
#	150
#	18020
#	36037
#	54645
#	71052
#	89010
#	106635
#	123365
#
# Disc length: 1878 seconds
#
# Revision: 0
# Processed by: cddbd v1.4PL0 Copyright (c) Steve Scherf et al.
# Submitted via: EasyCDDAExtractor 4.6.9.1
#
DISCID=60075408
DTITLE=Kid Power Posse - Double Impact
DYEAR=1900
DGENRE=
TTITLE0=Double Impact
TTITLE1=El Don
TTITLE2=Eres Un Toro
TTITLE3=Juqueado
TTITLE4=Sabor Ajitado
TTITLE5=No Te Olbidaré
TTITLE6=Como Pistola
TTITLE7=Loco Por Eya
EXTD=
EXTT0=
EXTT1=
EXTT2=
EXTT3=
EXTT4=
EXTT5=
EXTT6=
EXTT7=
PLAYORDER=
